<svg width="28" height="28" viewBox="0 0 28 28" fill="none" xmlns="http://www.w3.org/2000/svg">
<path d="M6 0C4.4087 0 2.88258 0.632141 1.75736 1.75736C0.632141 2.88258 0 4.4087 0 6V22C0 23.5913 0.632141 25.1174 1.75736 26.2426C2.88258 27.3679 4.4087 28 6 28H22C23.5913 28 25.1174 27.3679 26.2426 26.2426C27.3679 25.1174 28 23.5913 28 22V6C28 4.4087 27.3679 2.88258 26.2426 1.75736C25.1174 0.632141 23.5913 0 22 0H6ZM2 6C2 4.93913 2.42143 3.92172 3.17157 3.17157C3.92172 2.42143 4.93913 2 6 2H22C23.0609 2 24.0783 2.42143 24.8284 3.17157C25.5786 3.92172 26 4.93913 26 6V22C26 23.0609 25.5786 24.0783 24.8284 24.8284C24.0783 25.5786 23.0609 26 22 26H6C4.93913 26 3.92172 25.5786 3.17157 24.8284C2.42143 24.0783 2 23.0609 2 22V6ZM21.708 9.708C21.8958 9.52023 22.0013 9.26555 22.0013 9C22.0013 8.73445 21.8958 8.47977 21.708 8.292C21.5202 8.10423 21.2656 7.99874 21 7.99874C20.7344 7.99874 20.4798 8.10423 20.292 8.292L11 17.586L7.708 14.292C7.52023 14.1042 7.26555 13.9987 7 13.9987C6.73445 13.9987 6.47977 14.1042 6.292 14.292C6.10423 14.4798 5.99874 14.7344 5.99874 15C5.99874 15.2656 6.10423 15.5202 6.292 15.708L10.292 19.708C10.3849 19.8011 10.4952 19.875 10.6167 19.9254C10.7382 19.9758 10.8685 20.0018 11 20.0018C11.1315 20.0018 11.2618 19.9758 11.3833 19.9254C11.5048 19.875 11.6151 19.8011 11.708 19.708L21.708 9.708Z" fill="#008940"/>
</svg>
